<svg xmlns="http://www.w3.org/2000/svg" width="579.76611328125" height="657.7422485351562" viewBox="-282.13043212890625 -280.96734619140625 579.76611328125 657.7422485351562"><title>Neo4j Graph Visualization</title><desc>Created using Neo4j (http://www.neo4j.com/)</desc><g class="layer relationships"><g class="relationship" transform="translate(33.42638237218062 129.98115347411897) rotate(453.05747844275317)"><path class="b-outline" fill="#A5ABB6" stroke="none" d="M 25 0.5 L 50.09918057311569 0.5 L 50.09918057311569 -0.5 L 25 -0.5 Z M 96.10308682311569 0.5 L 121.20226739623138 0.5 L 121.20226739623138 3.5 L 128.20226739623138 0 L 121.20226739623138 -3.5 L 121.20226739623138 -0.5 L 96.10308682311569 -0.5 Z"/><text text-anchor="middle" pointer-events="none" font-size="8px" fill="#000000" x="73.10113369811569" y="3" transform="rotate(180 73.10113369811569 0)" font-family="Helvetica Neue, Helvetica, Arial, sans-serif">RECORDS</text></g><g class="relationship" transform="translate(33.42638237218062 129.98115347411897) rotate(373.32415025320074)"><path class="b-outline" fill="#A5ABB6" stroke="none" d="M 25 0.5 L 36.06424634340805 0.5 L 36.06424634340805 -0.5 L 25 -0.5 Z M 82.06815259340806 0.5 L 93.1323989368161 0.5 L 93.1323989368161 3.5 L 100.1323989368161 0 L 93.1323989368161 -3.5 L 93.1323989368161 -0.5 L 82.06815259340806 -0.5 Z"/><text text-anchor="middle" pointer-events="none" font-size="8px" fill="#000000" x="59.06619946840805" y="3" font-family="Helvetica Neue, Helvetica, Arial, sans-serif">RECORDS</text></g><g class="relationship" transform="translate(33.42638237218062 129.98115347411897) rotate(372.657135906505)"><path class="b-outline" fill="#A5ABB6" stroke="none" d="M 25 0.5 L 85.24757240600444 0.5 L 85.24757240600444 -0.5 L 25 -0.5 Z M 131.25147865600445 0.5 L 191.49905106200887 0.5 L 191.49905106200887 3.5 L 198.49905106200887 0 L 191.49905106200887 -3.5 L 191.49905106200887 -0.5 L 131.25147865600445 -0.5 Z"/><text text-anchor="middle" pointer-events="none" font-size="8px" fill="#000000" x="108.24952553100444" y="3" font-family="Helvetica Neue, Helvetica, Arial, sans-serif">RECORDS</text></g><g class="relationship" transform="translate(33.42638237218062 129.98115347411897) rotate(433.28585685708754)"><path class="b-outline" fill="#A5ABB6" stroke="none" d="M 25 0.5 L 87.19860029015852 0.5 L 87.19860029015852 -0.5 L 25 -0.5 Z M 133.20250654015854 0.5 L 195.40110683031705 0.5 L 195.40110683031705 3.5 L 202.40110683031705 0 L 195.40110683031705 -3.5 L 195.40110683031705 -0.5 L 133.20250654015854 -0.5 Z"/><text text-anchor="middle" pointer-events="none" font-size="8px" fill="#000000" x="110.20055341515852" y="3" font-family="Helvetica Neue, Helvetica, Arial, sans-serif">RECORDS</text></g><g class="relationship" transform="translate(33.42638237218062 129.98115347411897) rotate(414.74328743452634)"><path class="b-outline" fill="#A5ABB6" stroke="none" d="M 25 0.5 L 47.54194699063079 0.5 L 47.54194699063079 -0.5 L 25 -0.5 Z M 93.54585324063079 0.5 L 116.08780023126158 0.5 L 116.08780023126158 3.5 L 123.08780023126158 0 L 116.08780023126158 -3.5 L 116.08780023126158 -0.5 L 93.54585324063079 -0.5 Z"/><text text-anchor="middle" pointer-events="none" font-size="8px" fill="#000000" x="70.54390011563079" y="3" font-family="Helvetica Neue, Helvetica, Arial, sans-serif">RECORDS</text></g><g class="relationship" transform="translate(33.42638237218062 129.98115347411897) rotate(290.177357624043)"><path class="b-outline" fill="#A5ABB6" stroke="none" d="M 25 0.5 L 100.98391361596798 0.5 L 100.98391361596798 -0.5 L 25 -0.5 Z M 146.987819865968 0.5 L 222.97173348193596 0.5 L 222.97173348193596 3.5 L 229.97173348193596 0 L 222.97173348193596 -3.5 L 222.97173348193596 -0.5 L 146.987819865968 -0.5 Z"/><text text-anchor="middle" pointer-events="none" font-size="8px" fill="#000000" x="123.98586674096798" y="3" font-family="Helvetica Neue, Helvetica, Arial, sans-serif">RECORDS</text></g><g class="relationship" transform="translate(33.42638237218062 129.98115347411897) rotate(330.96944193358524)"><path class="b-outline" fill="#A5ABB6" stroke="none" d="M 25 0.5 L 108.00159923009085 0.5 L 108.00159923009085 -0.5 L 25 -0.5 Z M 154.00550548009085 0.5 L 237.0071047101817 0.5 L 237.0071047101817 3.5 L 244.0071047101817 0 L 237.0071047101817 -3.5 L 237.0071047101817 -0.5 L 154.00550548009085 -0.5 Z"/><text text-anchor="middle" pointer-events="none" font-size="8px" fill="#000000" x="131.00355235509085" y="3" font-family="Helvetica Neue, Helvetica, Arial, sans-serif">RECORDS</text></g><g class="relationship" transform="translate(33.42638237218062 129.98115347411897) rotate(311.9433459803339)"><path class="b-outline" fill="#A5ABB6" stroke="none" d="M 25 0.5 L 77.71032027532087 0.5 L 77.71032027532087 -0.5 L 25 -0.5 Z M 123.71422652532087 0.5 L 176.42454680064174 0.5 L 176.42454680064174 3.5 L 183.42454680064174 0 L 176.42454680064174 -3.5 L 176.42454680064174 -0.5 L 123.71422652532087 -0.5 Z"/><text text-anchor="middle" pointer-events="none" font-size="8px" fill="#000000" x="100.71227340032087" y="3" font-family="Helvetica Neue, Helvetica, Arial, sans-serif">RECORDS</text></g><g class="relationship" transform="translate(33.42638237218062 129.98115347411897) rotate(346.3956695498475)"><path class="b-outline" fill="#A5ABB6" stroke="none" d="M 25 0.5 L 69.88030348361985 0.5 L 69.88030348361985 -0.5 L 25 -0.5 Z M 115.88420973361985 0.5 L 160.7645132172397 0.5 L 160.7645132172397 3.5 L 167.7645132172397 0 L 160.7645132172397 -3.5 L 160.7645132172397 -0.5 L 115.88420973361985 -0.5 Z"/><text text-anchor="middle" pointer-events="none" font-size="8px" fill="#000000" x="92.88225660861985" y="3" font-family="Helvetica Neue, Helvetica, Arial, sans-serif">RECORDS</text></g><g class="relationship" transform="translate(33.42638237218062 129.98115347411897) rotate(267.6211937590167)"><path class="b-outline" fill="#A5ABB6" stroke="none" d="M 25 0.5 L 92.35383589869498 0.5 L 92.35383589869498 -0.5 L 25 -0.5 Z M 138.35774214869497 0.5 L 205.71157804738996 0.5 L 205.71157804738996 3.5 L 212.71157804738996 0 L 205.71157804738996 -3.5 L 205.71157804738996 -0.5 L 138.35774214869497 -0.5 Z"/><text text-anchor="middle" pointer-events="none" font-size="8px" fill="#000000" x="115.35578902369498" y="3" transform="rotate(180 115.35578902369498 0)" font-family="Helvetica Neue, Helvetica, Arial, sans-serif">RECORDS</text></g><g class="relationship" transform="translate(33.42638237218062 129.98115347411897) rotate(249.22140484145672)"><path class="b-outline" fill="#A5ABB6" stroke="none" d="M 25 0.5 L 118.82936478332238 0.5 L 118.82936478332238 -0.5 L 25 -0.5 Z M 164.83327103332238 0.5 L 258.66263581664475 0.5 L 258.66263581664475 3.5 L 265.66263581664475 0 L 258.66263581664475 -3.5 L 258.66263581664475 -0.5 L 164.83327103332238 -0.5 Z"/><text text-anchor="middle" pointer-events="none" font-size="8px" fill="#000000" x="141.83131790832238" y="3" transform="rotate(180 141.83131790832238 0)" font-family="Helvetica Neue, Helvetica, Arial, sans-serif">RECORDS</text></g><g class="relationship" transform="translate(33.42638237218062 129.98115347411897) rotate(229.36388655646005)"><path class="b-outline" fill="#A5ABB6" stroke="none" d="M 25 0.5 L 110.98059247019017 0.5 L 110.98059247019017 -0.5 L 25 -0.5 Z M 156.98449872019017 0.5 L 242.96509119038035 0.5 L 242.96509119038035 3.5 L 249.96509119038035 0 L 242.96509119038035 -3.5 L 242.96509119038035 -0.5 L 156.98449872019017 -0.5 Z"/><text text-anchor="middle" pointer-events="none" font-size="8px" fill="#000000" x="133.98254559519017" y="3" transform="rotate(180 133.98254559519017 0)" font-family="Helvetica Neue, Helvetica, Arial, sans-serif">RECORDS</text></g><g class="relationship" transform="translate(33.42638237218062 129.98115347411897) rotate(536.3622245102822)"><path class="b-outline" fill="#A5ABB6" stroke="none" d="M 25 0.5 L 31.009589406553665 0.5 L 31.009589406553665 -0.5 L 25 -0.5 Z M 77.01349565655366 0.5 L 83.02308506310733 0.5 L 83.02308506310733 3.5 L 90.02308506310733 0 L 83.02308506310733 -3.5 L 83.02308506310733 -0.5 L 77.01349565655366 -0.5 Z"/><text text-anchor="middle" pointer-events="none" font-size="8px" fill="#000000" x="54.011542531553665" y="3" transform="rotate(180 54.011542531553665 0)" font-family="Helvetica Neue, Helvetica, Arial, sans-serif">RECORDS</text></g><g class="relationship" transform="translate(33.42638237218062 129.98115347411897) rotate(213.3729305877739)"><path class="b-outline" fill="#A5ABB6" stroke="none" d="M 25 0.5 L 54.330617188381154 0.5 L 54.330617188381154 -0.5 L 25 -0.5 Z M 100.33452343838115 0.5 L 129.6651406267623 0.5 L 129.6651406267623 3.5 L 136.6651406267623 0 L 129.6651406267623 -3.5 L 129.6651406267623 -0.5 L 100.33452343838115 -0.5 Z"/><text text-anchor="middle" pointer-events="none" font-size="8px" fill="#000000" x="77.33257031338115" y="3" transform="rotate(180 77.33257031338115 0)" font-family="Helvetica Neue, Helvetica, Arial, sans-serif">RECORDS</text></g><g class="relationship" transform="translate(33.42638237218062 129.98115347411897) rotate(186.73845523080092)"><path class="b-outline" fill="#A5ABB6" stroke="none" d="M 25 0.5 L 78.55803994105344 0.5 L 78.55803994105344 -0.5 L 25 -0.5 Z M 124.56194619105344 0.5 L 178.11998613210687 0.5 L 178.11998613210687 3.5 L 185.11998613210687 0 L 178.11998613210687 -3.5 L 178.11998613210687 -0.5 L 124.56194619105344 -0.5 Z"/><text text-anchor="middle" pointer-events="none" font-size="8px" fill="#000000" x="101.55999306605344" y="3" transform="rotate(180 101.55999306605344 0)" font-family="Helvetica Neue, Helvetica, Arial, sans-serif">RECORDS</text></g><g class="relationship" transform="translate(33.42638237218062 129.98115347411897) rotate(322.50700952178806)"><path class="b-outline" fill="#A5ABB6" stroke="none" d="M 25 0.5 L 31.149122218194925 0.5 L 31.149122218194925 -0.5 L 25 -0.5 Z M 77.15302846819492 0.5 L 83.30215068638985 0.5 L 83.30215068638985 3.5 L 90.30215068638985 0 L 83.30215068638985 -3.5 L 83.30215068638985 -0.5 L 77.15302846819492 -0.5 Z"/><text text-anchor="middle" pointer-events="none" font-size="8px" fill="#000000" x="54.151075343194925" y="3" font-family="Helvetica Neue, Helvetica, Arial, sans-serif">RECORDS</text></g><g class="relationship" transform="translate(33.42638237218062 129.98115347411897) rotate(208.16472919200572)"><path class="b-outline" fill="#A5ABB6" stroke="none" d="M 25 0.5 L 102.40617643710792 0.5 L 102.40617643710792 -0.5 L 25 -0.5 Z M 148.41008268710792 0.5 L 225.81625912421583 0.5 L 225.81625912421583 3.5 L 232.81625912421583 0 L 225.81625912421583 -3.5 L 225.81625912421583 -0.5 L 148.41008268710792 -0.5 Z"/><text text-anchor="middle" pointer-events="none" font-size="8px" fill="#000000" x="125.40812956210792" y="3" transform="rotate(180 125.40812956210792 0)" font-family="Helvetica Neue, Helvetica, Arial, sans-serif">RECORDS</text></g><g class="relationship" transform="translate(33.42638237218062 129.98115347411897) rotate(492.4798401057581)"><path class="b-outline" fill="#A5ABB6" stroke="none" d="M 25 0.5 L 45.41523869548162 0.5 L 45.41523869548162 -0.5 L 25 -0.5 Z M 91.41914494548162 0.5 L 111.83438364096324 0.5 L 111.83438364096324 3.5 L 118.83438364096324 0 L 111.83438364096324 -3.5 L 111.83438364096324 -0.5 L 91.41914494548162 -0.5 Z"/><text text-anchor="middle" pointer-events="none" font-size="8px" fill="#000000" x="68.41719182048162" y="3" transform="rotate(180 68.41719182048162 0)" font-family="Helvetica Neue, Helvetica, Arial, sans-serif">RECORDS</text></g><g class="relationship" transform="translate(33.42638237218062 129.98115347411897) rotate(519.0021714427471)"><path class="b-outline" fill="#A5ABB6" stroke="none" d="M 25 0.5 L 74.77910941292072 0.5 L 74.77910941292072 -0.5 L 25 -0.5 Z M 120.78301566292072 0.5 L 170.56212507584144 0.5 L 170.56212507584144 3.5 L 177.56212507584144 0 L 170.56212507584144 -3.5 L 170.56212507584144 -0.5 L 120.78301566292072 -0.5 Z"/><text text-anchor="middle" pointer-events="none" font-size="8px" fill="#000000" x="97.78106253792072" y="3" transform="rotate(180 97.78106253792072 0)" font-family="Helvetica Neue, Helvetica, Arial, sans-serif">RECORDS</text></g><g class="relationship" transform="translate(33.42638237218062 129.98115347411897) rotate(495.2598226331617)"><path class="b-outline" fill="#A5ABB6" stroke="none" d="M 25 0.5 L 94.41157349552739 0.5 L 94.41157349552739 -0.5 L 25 -0.5 Z M 140.4154797455274 0.5 L 209.82705324105478 0.5 L 209.82705324105478 3.5 L 216.82705324105478 0 L 209.82705324105478 -3.5 L 209.82705324105478 -0.5 L 140.4154797455274 -0.5 Z"/><text text-anchor="middle" pointer-events="none" font-size="8px" fill="#000000" x="117.41352662052739" y="3" transform="rotate(180 117.41352662052739 0)" font-family="Helvetica Neue, Helvetica, Arial, sans-serif">RECORDS</text></g><g class="relationship" transform="translate(33.42638237218062 129.98115347411897) rotate(284.93207024680794)"><path class="b-outline" fill="#A5ABB6" stroke="none" d="M 25 0.5 L 36.630126166986685 0.5 L 36.630126166986685 -0.5 L 25 -0.5 Z M 115.53637616698668 0.5 L 127.16650233397337 0.5 L 127.16650233397337 3.5 L 134.16650233397337 0 L 127.16650233397337 -3.5 L 127.16650233397337 -0.5 L 115.53637616698668 -0.5 Z"/><text text-anchor="middle" pointer-events="none" font-size="8px" fill="#000000" x="76.08325116698668" y="3" font-family="Helvetica Neue, Helvetica, Arial, sans-serif">HAS_EXPERIMENT</text></g><g class="relationship" transform="translate(33.42638237218062 129.98115347411897) rotate(249.17581752450604)"><path class="b-outline" fill="#A5ABB6" stroke="none" d="M 25 0.5 L 25.538661893112504 0.5 L 25.538661893112504 -0.5 L 25 -0.5 Z M 65.7730368931125 0.5 L 66.31169878622501 0.5 L 66.31169878622501 3.5 L 73.31169878622501 0 L 66.31169878622501 -3.5 L 66.31169878622501 -0.5 L 65.7730368931125 -0.5 Z"/><text text-anchor="middle" pointer-events="none" font-size="8px" fill="#000000" x="45.655849393112504" y="3" transform="rotate(180 45.655849393112504 0)" font-family="Helvetica Neue, Helvetica, Arial, sans-serif">HAS_E…</text></g><g class="relationship" transform="translate(74.43939819574256 -23.810614830582587) rotate(424.5423538492378)"><path class="b-outline" fill="#A5ABB6" stroke="none" d="M 25 0.5 L 144.27951747741258 0.5 L 144.27951747741258 -0.5 L 25 -0.5 Z M 197.84982997741258 0.5 L 317.12934745482517 0.5 L 317.12934745482517 3.5 L 324.12934745482517 0 L 317.12934745482517 -3.5 L 317.12934745482517 -0.5 L 197.84982997741258 -0.5 Z"/><text text-anchor="middle" pointer-events="none" font-size="8px" fill="#000000" x="171.06467372741258" y="3" font-family="Helvetica Neue, Helvetica, Arial, sans-serif">HAS_EVENT</text></g><g class="relationship" transform="translate(74.43939819574256 -23.810614830582587) rotate(328.378619168587)"><path class="b-outline" fill="#A5ABB6" stroke="none" d="M 25 0.5 L 63.707669669842616 0.5 L 63.707669669842616 -0.5 L 25 -0.5 Z M 117.27798216984262 0.5 L 155.98565183968523 0.5 L 155.98565183968523 3.5 L 162.98565183968523 0 L 155.98565183968523 -3.5 L 155.98565183968523 -0.5 L 117.27798216984262 -0.5 Z"/><text text-anchor="middle" pointer-events="none" font-size="8px" fill="#000000" x="90.49282591984262" y="3" font-family="Helvetica Neue, Helvetica, Arial, sans-serif">HAS_EVENT</text></g><g class="relationship" transform="translate(74.43939819574256 -23.810614830582587) rotate(245.14314614035055)"><path class="b-outline" fill="#A5ABB6" stroke="none" d="M 25 0.5 L 95.44030367833723 0.5 L 95.44030367833723 -0.5 L 25 -0.5 Z M 149.01061617833722 0.5 L 219.45091985667446 0.5 L 219.45091985667446 3.5 L 226.45091985667446 0 L 219.45091985667446 -3.5 L 219.45091985667446 -0.5 L 149.01061617833722 -0.5 Z"/><text text-anchor="middle" pointer-events="none" font-size="8px" fill="#000000" x="122.22545992833723" y="3" transform="rotate(180 122.22545992833723 0)" font-family="Helvetica Neue, Helvetica, Arial, sans-serif">HAS_EVENT</text></g><g class="relationship" transform="translate(74.43939819574256 -23.810614830582587) rotate(189.97544372700537)"><path class="b-outline" fill="#A5ABB6" stroke="none" d="M 25 0.5 L 35.01963616733846 0.5 L 35.01963616733846 -0.5 L 25 -0.5 Z M 88.58994866733846 0.5 L 98.60958483467692 0.5 L 98.60958483467692 3.5 L 105.60958483467692 0 L 98.60958483467692 -3.5 L 98.60958483467692 -0.5 L 88.58994866733846 -0.5 Z"/><text text-anchor="middle" pointer-events="none" font-size="8px" fill="#000000" x="61.80479241733846" y="3" transform="rotate(180 61.80479241733846 0)" font-family="Helvetica Neue, Helvetica, Arial, sans-serif">HAS_EVENT</text></g><g class="relationship" transform="translate(224.5104750291141 291.4194172924756) rotate(200.98907903023905)"><path class="b-outline" fill="#A5ABB6" stroke="none" d="M 25 0.5 L 30.051310140303734 0.5 L 30.051310140303734 -0.5 L 25 -0.5 Z M 76.05521639030374 0.5 L 81.10652653060747 0.5 L 81.10652653060747 3.5 L 88.10652653060747 0 L 81.10652653060747 -3.5 L 81.10652653060747 -0.5 L 76.05521639030374 -0.5 Z"/><text text-anchor="middle" pointer-events="none" font-size="8px" fill="#000000" x="53.053263265303734" y="3" transform="rotate(180 53.053263265303734 0)" font-family="Helvetica Neue, Helvetica, Arial, sans-serif">RECORDS</text></g><g class="relationship" transform="translate(224.5104750291141 291.4194172924756) rotate(515.8490344770473)"><path class="b-outline" fill="#A5ABB6" stroke="none" d="M 25 0.5 L 42.36833665518226 0.5 L 42.36833665518226 -0.5 L 25 -0.5 Z M 88.37224290518226 0.5 L 105.74057956036452 0.5 L 105.74057956036452 3.5 L 112.74057956036452 0 L 105.74057956036452 -3.5 L 105.74057956036452 -0.5 L 88.37224290518226 -0.5 Z"/><text text-anchor="middle" pointer-events="none" font-size="8px" fill="#000000" x="65.37028978018226" y="3" transform="rotate(180 65.37028978018226 0)" font-family="Helvetica Neue, Helvetica, Arial, sans-serif">RECORDS</text></g><g class="relationship" transform="translate(224.5104750291141 291.4194172924756) rotate(283.4917913727322)"><path class="b-outline" fill="#A5ABB6" stroke="none" d="M 25 0.5 L 31.32691600969642 0.5 L 31.32691600969642 -0.5 L 25 -0.5 Z M 77.33082225969642 0.5 L 83.65773826939284 0.5 L 83.65773826939284 3.5 L 90.65773826939284 0 L 83.65773826939284 -3.5 L 83.65773826939284 -0.5 L 77.33082225969642 -0.5 Z"/><text text-anchor="middle" pointer-events="none" font-size="8px" fill="#000000" x="54.32886913469642" y="3" font-family="Helvetica Neue, Helvetica, Arial, sans-serif">RECORDS</text></g><g class="relationship" transform="translate(224.5104750291141 291.4194172924756) rotate(242.4005808307091)"><path class="b-outline" fill="#A5ABB6" stroke="none" d="M 25 0.5 L 48.31130785555614 0.5 L 48.31130785555614 -0.5 L 25 -0.5 Z M 94.31521410555614 0.5 L 117.62652196111227 0.5 L 117.62652196111227 3.5 L 124.62652196111227 0 L 117.62652196111227 -3.5 L 117.62652196111227 -0.5 L 94.31521410555614 -0.5 Z"/><text text-anchor="middle" pointer-events="none" font-size="8px" fill="#000000" x="71.31326098055614" y="3" transform="rotate(180 71.31326098055614 0)" font-family="Helvetica Neue, Helvetica, Arial, sans-serif">RECORDS</text></g><g class="relationship" transform="translate(224.5104750291141 291.4194172924756) rotate(182.42950562845192)"><path class="b-outline" fill="#A5ABB6" stroke="none" d="M 25 0.5 L 73.21545748453384 0.5 L 73.21545748453384 -0.5 L 25 -0.5 Z M 119.21936373453384 0.5 L 167.4348212190677 0.5 L 167.4348212190677 3.5 L 174.4348212190677 0 L 167.4348212190677 -3.5 L 167.4348212190677 -0.5 L 119.21936373453384 -0.5 Z"/><text text-anchor="middle" pointer-events="none" font-size="8px" fill="#000000" x="96.21741060953384" y="3" transform="rotate(180 96.21741060953384 0)" font-family="Helvetica Neue, Helvetica, Arial, sans-serif">RECORDS</text></g><g class="relationship" transform="translate(234.51507242752828 -122.37218856411505) rotate(481.033300649197)"><path class="b-outline" fill="#A5ABB6" stroke="none" d="M 25 0.5 L 79.79975926250133 0.5 L 79.79975926250133 -0.5 L 25 -0.5 Z M 125.80366551250133 0.5 L 180.60342477500265 0.5 L 180.60342477500265 3.5 L 187.60342477500265 0 L 180.60342477500265 -3.5 L 180.60342477500265 -0.5 L 125.80366551250133 -0.5 Z"/><text text-anchor="middle" pointer-events="none" font-size="8px" fill="#000000" x="102.80171238750133" y="3" transform="rotate(180 102.80171238750133 0)" font-family="Helvetica Neue, Helvetica, Arial, sans-serif">RECORDS</text></g><g class="relationship" transform="translate(234.51507242752828 -122.37218856411505) rotate(453.7952595341539)"><path class="b-outline" fill="#A5ABB6" stroke="none" d="M 25 0.5 L 77.23160316414742 0.5 L 77.23160316414742 -0.5 L 25 -0.5 Z M 123.23550941414742 0.5 L 175.46711257829483 0.5 L 175.46711257829483 3.5 L 182.46711257829483 0 L 175.46711257829483 -3.5 L 175.46711257829483 -0.5 L 123.23550941414742 -0.5 Z"/><text text-anchor="middle" pointer-events="none" font-size="8px" fill="#000000" x="100.23355628914742" y="3" transform="rotate(180 100.23355628914742 0)" font-family="Helvetica Neue, Helvetica, Arial, sans-serif">RECORDS</text></g><g class="relationship" transform="translate(234.51507242752828 -122.37218856411505) rotate(482.4057826272744)"><path class="b-outline" fill="#A5ABB6" stroke="none" d="M 25 0.5 L 31.13686516704938 0.5 L 31.13686516704938 -0.5 L 25 -0.5 Z M 77.14077141704938 0.5 L 83.27763658409876 0.5 L 83.27763658409876 3.5 L 90.27763658409876 0 L 83.27763658409876 -3.5 L 83.27763658409876 -0.5 L 77.14077141704938 -0.5 Z"/><text text-anchor="middle" pointer-events="none" font-size="8px" fill="#000000" x="54.13881829204938" y="3" transform="rotate(180 54.13881829204938 0)" font-family="Helvetica Neue, Helvetica, Arial, sans-serif">RECORDS</text></g><g class="relationship" transform="translate(234.51507242752828 -122.37218856411505) rotate(434.35179802357777)"><path class="b-outline" fill="#A5ABB6" stroke="none" d="M 25 0.5 L 36.74765349948321 0.5 L 36.74765349948321 -0.5 L 25 -0.5 Z M 82.7515597494832 0.5 L 94.49921324896641 0.5 L 94.49921324896641 3.5 L 101.49921324896641 0 L 94.49921324896641 -3.5 L 94.49921324896641 -0.5 L 82.7515597494832 -0.5 Z"/><text text-anchor="middle" pointer-events="none" font-size="8px" fill="#000000" x="59.74960662448321" y="3" font-family="Helvetica Neue, Helvetica, Arial, sans-serif">RECORDS</text></g><g class="relationship" transform="translate(234.51507242752828 -122.37218856411505) rotate(533.4307836085068)"><path class="b-outline" fill="#A5ABB6" stroke="none" d="M 25 0.5 L 30.442915432885506 0.5 L 30.442915432885506 -0.5 L 25 -0.5 Z M 76.44682168288551 0.5 L 81.88973711577101 0.5 L 81.88973711577101 3.5 L 88.88973711577101 0 L 81.88973711577101 -3.5 L 81.88973711577101 -0.5 L 76.44682168288551 -0.5 Z"/><text text-anchor="middle" pointer-events="none" font-size="8px" fill="#000000" x="53.444868557885506" y="3" transform="rotate(180 53.444868557885506 0)" font-family="Helvetica Neue, Helvetica, Arial, sans-serif">RECORDS</text></g><g class="relationship" transform="translate(-31.258662719621977 -251.96732635908356) rotate(429.21723145500124)"><path class="b-outline" fill="#A5ABB6" stroke="none" d="M 25 0.5 L 50.74520644205933 0.5 L 50.74520644205933 -0.5 L 25 -0.5 Z M 96.74911269205933 0.5 L 122.49431913411865 0.5 L 122.49431913411865 3.5 L 129.49431913411865 0 L 122.49431913411865 -3.5 L 122.49431913411865 -0.5 L 96.74911269205933 -0.5 Z"/><text text-anchor="middle" pointer-events="none" font-size="8px" fill="#000000" x="73.74715956705933" y="3" font-family="Helvetica Neue, Helvetica, Arial, sans-serif">RECORDS</text></g><g class="relationship" transform="translate(-31.258662719621977 -251.96732635908356) rotate(469.2265128378024)"><path class="b-outline" fill="#A5ABB6" stroke="none" d="M 25 0.5 L 31.84809571177052 0.5 L 31.84809571177052 -0.5 L 25 -0.5 Z M 77.85200196177053 0.5 L 84.70009767354104 0.5 L 84.70009767354104 3.5 L 91.70009767354104 0 L 84.70009767354104 -3.5 L 84.70009767354104 -0.5 L 77.85200196177053 -0.5 Z"/><text text-anchor="middle" pointer-events="none" font-size="8px" fill="#000000" x="54.85004883677052" y="3" transform="rotate(180 54.85004883677052 0)" font-family="Helvetica Neue, Helvetica, Arial, sans-serif">RECORDS</text></g><g class="relationship" transform="translate(-31.258662719621977 -251.96732635908356) rotate(483.42860817791944)"><path class="b-outline" fill="#A5ABB6" stroke="none" d="M 25 0.5 L 77.3165405569905 0.5 L 77.3165405569905 -0.5 L 25 -0.5 Z M 123.3204468069905 0.5 L 175.636987363981 0.5 L 175.636987363981 3.5 L 182.636987363981 0 L 175.636987363981 -3.5 L 175.636987363981 -0.5 L 123.3204468069905 -0.5 Z"/><text text-anchor="middle" pointer-events="none" font-size="8px" fill="#000000" x="100.3184936819905" y="3" transform="rotate(180 100.3184936819905 0)" font-family="Helvetica Neue, Helvetica, Arial, sans-serif">RECORDS</text></g><g class="relationship" transform="translate(-54.1956421749679 -46.43560189162566) rotate(518.6034257515507)"><path class="b-outline" fill="#A5ABB6" stroke="none" d="M 25 0.5 L 48.501078480968346 0.5 L 48.501078480968346 -0.5 L 25 -0.5 Z M 94.50498473096835 0.5 L 118.00606321193669 0.5 L 118.00606321193669 3.5 L 125.00606321193669 0 L 118.00606321193669 -3.5 L 118.00606321193669 -0.5 L 94.50498473096835 -0.5 Z"/><text text-anchor="middle" pointer-events="none" font-size="8px" fill="#000000" x="71.50303160596835" y="3" transform="rotate(180 71.50303160596835 0)" font-family="Helvetica Neue, Helvetica, Arial, sans-serif">RECORDS</text></g><g class="relationship" transform="translate(-54.1956421749679 -46.43560189162566) rotate(390.6742388205717)"><path class="b-outline" fill="#A5ABB6" stroke="none" d="M 25 0.5 L 77.61952185711873 0.5 L 77.61952185711873 -0.5 L 25 -0.5 Z M 123.62342810711873 0.5 L 176.24294996423745 0.5 L 176.24294996423745 3.5 L 183.24294996423745 0 L 176.24294996423745 -3.5 L 176.24294996423745 -0.5 L 123.62342810711873 -0.5 Z"/><text text-anchor="middle" pointer-events="none" font-size="8px" fill="#000000" x="100.62147498211873" y="3" font-family="Helvetica Neue, Helvetica, Arial, sans-serif">RECORDS</text></g><g class="relationship" transform="translate(-54.1956421749679 -46.43560189162566) rotate(488.57614662506955)"><path class="b-outline" fill="#A5ABB6" stroke="none" d="M 25 0.5 L 70.55976322388528 0.5 L 70.55976322388528 -0.5 L 25 -0.5 Z M 116.56366947388528 0.5 L 162.12343269777057 0.5 L 162.12343269777057 3.5 L 169.12343269777057 0 L 162.12343269777057 -3.5 L 162.12343269777057 -0.5 L 116.56366947388528 -0.5 Z"/><text text-anchor="middle" pointer-events="none" font-size="8px" fill="#000000" x="93.56171634888528" y="3" transform="rotate(180 93.56171634888528 0)" font-family="Helvetica Neue, Helvetica, Arial, sans-serif">RECORDS</text></g><g class="relationship" transform="translate(-54.1956421749679 -46.43560189162566) rotate(478.4414196040152)"><path class="b-outline" fill="#A5ABB6" stroke="none" d="M 25 0.5 L 27.69118999306714 0.5 L 27.69118999306714 -0.5 L 25 -0.5 Z M 64.80447124306714 0.5 L 67.49566123613428 0.5 L 67.49566123613428 3.5 L 74.49566123613428 0 L 67.49566123613428 -3.5 L 67.49566123613428 -0.5 L 64.80447124306714 -0.5 Z"/><text text-anchor="middle" pointer-events="none" font-size="8px" fill="#000000" x="46.24783061806714" y="3" transform="rotate(180 46.24783061806714 0)" font-family="Helvetica Neue, Helvetica, Arial, sans-serif">RECO…</text></g><g class="relationship" transform="translate(-54.1956421749679 -46.43560189162566) rotate(458.4124100090368)"><path class="b-outline" fill="#A5ABB6" stroke="none" d="M 25 0.5 L 66.35451987081372 0.5 L 66.35451987081372 -0.5 L 25 -0.5 Z M 112.35842612081372 0.5 L 153.71294599162744 0.5 L 153.71294599162744 3.5 L 160.71294599162744 0 L 153.71294599162744 -3.5 L 153.71294599162744 -0.5 L 112.35842612081372 -0.5 Z"/><text text-anchor="middle" pointer-events="none" font-size="8px" fill="#000000" x="89.35647299581372" y="3" transform="rotate(180 89.35647299581372 0)" font-family="Helvetica Neue, Helvetica, Arial, sans-serif">RECORDS</text></g><g class="relationship" transform="translate(-1.5235727222690751 38.09159608521113) rotate(325.7913519063987)"><path class="b-outline" fill="#A5ABB6" stroke="none" d="M 25 0.5 L 112.42334751566324 0.5 L 112.42334751566324 -0.5 L 25 -0.5 Z M 165.99366001566324 0.5 L 253.41700753132648 0.5 L 253.41700753132648 3.5 L 260.4170075313265 0 L 253.41700753132648 -3.5 L 253.41700753132648 -0.5 L 165.99366001566324 -0.5 Z"/><text text-anchor="middle" pointer-events="none" font-size="8px" fill="#000000" x="139.20850376566324" y="3" font-family="Helvetica Neue, Helvetica, Arial, sans-serif">HAS_EVENT</text></g><g class="relationship" transform="translate(-1.5235727222690751 38.09159608521113) rotate(512.7049218751149)"><path class="b-outline" fill="#A5ABB6" stroke="none" d="M 25 0.5 L 111.28069512381546 0.5 L 111.28069512381546 -0.5 L 25 -0.5 Z M 164.85100762381546 0.5 L 251.13170274763092 0.5 L 251.13170274763092 3.5 L 258.1317027476309 0 L 251.13170274763092 -3.5 L 251.13170274763092 -0.5 L 164.85100762381546 -0.5 Z"/><text text-anchor="middle" pointer-events="none" font-size="8px" fill="#000000" x="138.06585137381546" y="3" transform="rotate(180 138.06585137381546 0)" font-family="Helvetica Neue, Helvetica, Arial, sans-serif">HAS_EVENT</text></g><g class="relationship" transform="translate(-253.13043716831766 167.92821212398727) rotate(409.0488451917543)"><path class="b-outline" fill="#A5ABB6" stroke="none" d="M 25 0.5 L 61.06510691903931 0.5 L 61.06510691903931 -0.5 L 25 -0.5 Z M 107.06901316903931 0.5 L 143.13412008807862 0.5 L 143.13412008807862 3.5 L 150.13412008807862 0 L 143.13412008807862 -3.5 L 143.13412008807862 -0.5 L 107.06901316903931 -0.5 Z"/><text text-anchor="middle" pointer-events="none" font-size="8px" fill="#000000" x="84.06706004403931" y="3" font-family="Helvetica Neue, Helvetica, Arial, sans-serif">RECORDS</text></g><g class="relationship" transform="translate(-253.13043716831766 167.92821212398727) rotate(379.5679419316374)"><path class="b-outline" fill="#A5ABB6" stroke="none" d="M 25 0.5 L 25.207545861306556 0.5 L 25.207545861306556 -0.5 L 25 -0.5 Z M 71.21145211130656 0.5 L 71.41899797261311 0.5 L 71.41899797261311 3.5 L 78.41899797261311 0 L 71.41899797261311 -3.5 L 71.41899797261311 -0.5 L 71.21145211130656 -0.5 Z"/><text text-anchor="middle" pointer-events="none" font-size="8px" fill="#000000" x="48.209498986306556" y="3" font-family="Helvetica Neue, Helvetica, Arial, sans-serif">RECORDS</text></g><g class="relationship" transform="translate(-253.13043716831766 167.92821212398727) rotate(379.7831788203564)"><path class="b-outline" fill="#A5ABB6" stroke="none" d="M 25 0.5 L 74.14896495169273 0.5 L 74.14896495169273 -0.5 L 25 -0.5 Z M 120.15287120169273 0.5 L 169.30183615338547 0.5 L 169.30183615338547 3.5 L 176.30183615338547 0 L 169.30183615338547 -3.5 L 169.30183615338547 -0.5 L 120.15287120169273 -0.5 Z"/><text text-anchor="middle" pointer-events="none" font-size="8px" fill="#000000" x="97.15091807669273" y="3" font-family="Helvetica Neue, Helvetica, Arial, sans-serif">RECORDS</text></g></g><g class="layer nodes"><g class="node" aria-label="graph-node0" transform="translate(33.42638237218062,129.98115347411897)"><circle class="b-outline" cx="0" cy="0" r="25" fill="#57C7E3" stroke="#23b3d7" stroke-width="2px"/><text class="caption" text-anchor="middle" pointer-events="none" x="0" y="5" font-size="10px" fill="#2A2C34" font-family="Helvetica Neue, Helvetica, Arial, sans-serif"> PRJ-3484</text></g><g class="node" aria-label="graph-node5" transform="translate(74.43939819574256,-23.810614830582587)"><circle class="b-outline" cx="0" cy="0" r="25" fill="#8DCC93" stroke="#5db665" stroke-width="2px"/><text class="caption" text-anchor="middle" pointer-events="none" x="0" y="-5" font-size="10px" fill="#2A2C34" font-family="Helvetica Neue, Helvetica, Arial, sans-serif"> Cyclic</text><text class="caption" text-anchor="middle" pointer-events="none" x="0" y="5" font-size="10px" fill="#2A2C34" font-family="Helvetica Neue, Helvetica, Arial, sans-serif"> Direct</text><text class="caption" text-anchor="middle" pointer-events="none" x="0" y="15" font-size="10px" fill="#2A2C34" font-family="Helvetica Neue, Helvetica, Arial, sans-serif"> Simpl</text></g><g class="node" aria-label="graph-node337" transform="translate(224.5104750291141,291.4194172924756)"><circle class="b-outline" cx="0" cy="0" r="25" fill="#ECB5C9" stroke="#da7298" stroke-width="2px"/><text class="caption" text-anchor="middle" pointer-events="none" x="0" y="-5" font-size="10px" fill="#2A2C34" font-family="Helvetica Neue, Helvetica, Arial, sans-serif"> CDSS</text><text class="caption" text-anchor="middle" pointer-events="none" x="0" y="5" font-size="10px" fill="#2A2C34" font-family="Helvetica Neue, Helvetica, Arial, sans-serif"> tests with</text><text class="caption" text-anchor="middle" pointer-events="none" x="0" y="15" font-size="10px" fill="#2A2C34" font-family="Helvetica Neue, Helvetica, Arial, sans-serif"> Sig</text></g><g class="node" aria-label="graph-node344" transform="translate(118.90871165689012,250.90579098606082)"><circle class="b-outline" cx="0" cy="0" r="25" fill="#D9C8AE" stroke="#c0a378" stroke-width="2px"/><text class="caption" text-anchor="middle" pointer-events="none" x="0" y="5" font-size="10px" fill="#2A2C34" font-family="Helvetica Neue, Helvetica, Arial, sans-serif"> pressure…</text></g><g class="node" aria-label="graph-node351" transform="translate(98.82624580918296,347.77491199367506)"><circle class="b-outline" cx="0" cy="0" r="25" fill="#D9C8AE" stroke="#c0a378" stroke-width="2px"/><text class="caption" text-anchor="middle" pointer-events="none" x="0" y="5" font-size="10px" fill="#2A2C34" font-family="Helvetica Neue, Helvetica, Arial, sans-serif"> pressure…</text></g><g class="node" aria-label="graph-node361" transform="translate(251.4941253721919,178.95344450179596)"><circle class="b-outline" cx="0" cy="0" r="25" fill="#D9C8AE" stroke="#c0a378" stroke-width="2px"/><text class="caption" text-anchor="middle" pointer-events="none" x="0" y="5" font-size="10px" fill="#2A2C34" font-family="Helvetica Neue, Helvetica, Arial, sans-serif"> pressure…</text></g><g class="node" aria-label="graph-node368" transform="translate(155.19044487518698,158.81915525035953)"><circle class="b-outline" cx="0" cy="0" r="25" fill="#D9C8AE" stroke="#c0a378" stroke-width="2px"/><text class="caption" text-anchor="middle" pointer-events="none" x="0" y="5" font-size="10px" fill="#2A2C34" font-family="Helvetica Neue, Helvetica, Arial, sans-serif"> pressure…</text></g><g class="node" aria-label="graph-node382" transform="translate(25.254919209788014,282.9653419549291)"><circle class="b-outline" cx="0" cy="0" r="25" fill="#D9C8AE" stroke="#c0a378" stroke-width="2px"/><text class="caption" text-anchor="middle" pointer-events="none" x="0" y="5" font-size="10px" fill="#2A2C34" font-family="Helvetica Neue, Helvetica, Arial, sans-serif"> pressure…</text></g><g class="node" aria-label="graph-node296" transform="translate(234.51507242752828,-122.37218856411505)"><circle class="b-outline" cx="0" cy="0" r="25" fill="#ECB5C9" stroke="#da7298" stroke-width="2px"/><text class="caption" text-anchor="middle" pointer-events="none" x="0" y="-5" font-size="10px" fill="#2A2C34" font-family="Helvetica Neue, Helvetica, Arial, sans-serif"> CDSS</text><text class="caption" text-anchor="middle" pointer-events="none" x="0" y="5" font-size="10px" fill="#2A2C34" font-family="Helvetica Neue, Helvetica, Arial, sans-serif"> tests with</text><text class="caption" text-anchor="middle" pointer-events="none" x="0" y="15" font-size="10px" fill="#2A2C34" font-family="Helvetica Neue, Helvetica, Arial, sans-serif"> Sig</text></g><g class="node" aria-label="graph-node233" transform="translate(124.91031525202317,59.800843003564495)"><circle class="b-outline" cx="0" cy="0" r="25" fill="#D9C8AE" stroke="#c0a378" stroke-width="2px"/><text class="caption" text-anchor="middle" pointer-events="none" x="0" y="5" font-size="10px" fill="#2A2C34" font-family="Helvetica Neue, Helvetica, Arial, sans-serif"> pressure…</text></g><g class="node" aria-label="graph-node305" transform="translate(220.7825451330978,84.63993788185573)"><circle class="b-outline" cx="0" cy="0" r="25" fill="#D9C8AE" stroke="#c0a378" stroke-width="2px"/><text class="caption" text-anchor="middle" pointer-events="none" x="0" y="5" font-size="10px" fill="#2A2C34" font-family="Helvetica Neue, Helvetica, Arial, sans-serif"> pressure…</text></g><g class="node" aria-label="graph-node312" transform="translate(172.73640286735667,-25.046295381516043)"><circle class="b-outline" cx="0" cy="0" r="25" fill="#D9C8AE" stroke="#c0a378" stroke-width="2px"/><text class="caption" text-anchor="middle" pointer-events="none" x="0" y="5" font-size="10px" fill="#2A2C34" font-family="Helvetica Neue, Helvetica, Arial, sans-serif"> pressure…</text></g><g class="node" aria-label="graph-node318" transform="translate(268.6357074733796,-0.561543640630223)"><circle class="b-outline" cx="0" cy="0" r="25" fill="#D9C8AE" stroke="#c0a378" stroke-width="2px"/><text class="caption" text-anchor="middle" pointer-events="none" x="0" y="5" font-size="10px" fill="#2A2C34" font-family="Helvetica Neue, Helvetica, Arial, sans-serif"> pressure…</text></g><g class="node" aria-label="graph-node324" transform="translate(121.37309260375724,-109.34281322003909)"><circle class="b-outline" cx="0" cy="0" r="25" fill="#D9C8AE" stroke="#c0a378" stroke-width="2px"/><text class="caption" text-anchor="middle" pointer-events="none" x="0" y="5" font-size="10px" fill="#2A2C34" font-family="Helvetica Neue, Helvetica, Arial, sans-serif"> pressure…</text></g><g class="node" aria-label="graph-node268" transform="translate(-31.258662719621977,-251.96732635908356)"><circle class="b-outline" cx="0" cy="0" r="25" fill="#ECB5C9" stroke="#da7298" stroke-width="2px"/><text class="caption" text-anchor="middle" pointer-events="none" x="0" y="-5" font-size="10px" fill="#2A2C34" font-family="Helvetica Neue, Helvetica, Arial, sans-serif"> CDSS</text><text class="caption" text-anchor="middle" pointer-events="none" x="0" y="5" font-size="10px" fill="#2A2C34" font-family="Helvetica Neue, Helvetica, Arial, sans-serif"> tests with</text><text class="caption" text-anchor="middle" pointer-events="none" x="0" y="15" font-size="10px" fill="#2A2C34" font-family="Helvetica Neue, Helvetica, Arial, sans-serif"> Sig</text></g><g class="node" aria-label="graph-node295" transform="translate(23.55990791303458,-107.52557699794026)"><circle class="b-outline" cx="0" cy="0" r="25" fill="#D9C8AE" stroke="#c0a378" stroke-width="2px"/><text class="caption" text-anchor="middle" pointer-events="none" x="0" y="5" font-size="10px" fill="#2A2C34" font-family="Helvetica Neue, Helvetica, Arial, sans-serif"> pressure…</text></g><g class="node" aria-label="graph-node288" transform="translate(-69.68842602546664,-141.77628276083655)"><circle class="b-outline" cx="0" cy="0" r="25" fill="#D9C8AE" stroke="#c0a378" stroke-width="2px"/><text class="caption" text-anchor="middle" pointer-events="none" x="0" y="5" font-size="10px" fill="#2A2C34" font-family="Helvetica Neue, Helvetica, Arial, sans-serif"> pressure…</text></g><g class="node" aria-label="graph-node282" transform="translate(-145.64536344282536,-78.67912358910182)"><circle class="b-outline" cx="0" cy="0" r="25" fill="#D9C8AE" stroke="#c0a378" stroke-width="2px"/><text class="caption" text-anchor="middle" pointer-events="none" x="0" y="5" font-size="10px" fill="#2A2C34" font-family="Helvetica Neue, Helvetica, Arial, sans-serif"> pressure…</text></g><g class="node" aria-label="graph-node219" transform="translate(-54.1956421749679,-46.43560189162566)"><circle class="b-outline" cx="0" cy="0" r="25" fill="#ECB5C9" stroke="#da7298" stroke-width="2px"/><text class="caption" text-anchor="middle" pointer-events="none" x="0" y="-5" font-size="10px" fill="#2A2C34" font-family="Helvetica Neue, Helvetica, Arial, sans-serif"> CDSS</text><text class="caption" text-anchor="middle" pointer-events="none" x="0" y="5" font-size="10px" fill="#2A2C34" font-family="Helvetica Neue, Helvetica, Arial, sans-serif"> tests with</text><text class="caption" text-anchor="middle" pointer-events="none" x="0" y="15" font-size="10px" fill="#2A2C34" font-family="Helvetica Neue, Helvetica, Arial, sans-serif"> Sig</text></g><g class="node" aria-label="graph-node226" transform="translate(-193.86293205839686,8.28977738491992)"><circle class="b-outline" cx="0" cy="0" r="25" fill="#D9C8AE" stroke="#c0a378" stroke-width="2px"/><text class="caption" text-anchor="middle" pointer-events="none" x="0" y="5" font-size="10px" fill="#2A2C34" font-family="Helvetica Neue, Helvetica, Arial, sans-serif"> pressure…</text></g><g class="node" aria-label="graph-node239" transform="translate(-175.24212008981993,105.32624214954001)"><circle class="b-outline" cx="0" cy="0" r="25" fill="#D9C8AE" stroke="#c0a378" stroke-width="2px"/><text class="caption" text-anchor="middle" pointer-events="none" x="0" y="5" font-size="10px" fill="#2A2C34" font-family="Helvetica Neue, Helvetica, Arial, sans-serif"> pressure…</text></g><g class="node" aria-label="graph-node246" transform="translate(-101.58144481372274,41.051381786499675)"><circle class="b-outline" cx="0" cy="0" r="25" fill="#D9C8AE" stroke="#c0a378" stroke-width="2px"/><text class="caption" text-anchor="middle" pointer-events="none" x="0" y="5" font-size="10px" fill="#2A2C34" font-family="Helvetica Neue, Helvetica, Arial, sans-serif"> pressure…</text></g><g class="node" aria-label="graph-node260" transform="translate(-81.36494420767976,137.27919701130543)"><circle class="b-outline" cx="0" cy="0" r="25" fill="#D9C8AE" stroke="#c0a378" stroke-width="2px"/><text class="caption" text-anchor="middle" pointer-events="none" x="0" y="5" font-size="10px" fill="#2A2C34" font-family="Helvetica Neue, Helvetica, Arial, sans-serif"> pressure…</text></g><g class="node" aria-label="graph-node6" transform="translate(-1.5235727222690751,38.09159608521113)"><circle class="b-outline" cx="0" cy="0" r="25" fill="#8DCC93" stroke="#5db665" stroke-width="2px"/><text class="caption" text-anchor="middle" pointer-events="none" x="0" y="-5" font-size="10px" fill="#2A2C34" font-family="Helvetica Neue, Helvetica, Arial, sans-serif"> Cyclic</text><text class="caption" text-anchor="middle" pointer-events="none" x="0" y="5" font-size="10px" fill="#2A2C34" font-family="Helvetica Neue, Helvetica, Arial, sans-serif"> Direct</text><text class="caption" text-anchor="middle" pointer-events="none" x="0" y="15" font-size="10px" fill="#2A2C34" font-family="Helvetica Neue, Helvetica, Arial, sans-serif"> Simpl</text></g><g class="node" aria-label="graph-node67" transform="translate(-253.13043716831766,167.92821212398727)"><circle class="b-outline" cx="0" cy="0" r="25" fill="#ECB5C9" stroke="#da7298" stroke-width="2px"/><text class="caption" text-anchor="middle" pointer-events="none" x="0" y="-5" font-size="10px" fill="#2A2C34" font-family="Helvetica Neue, Helvetica, Arial, sans-serif"> CDSS</text><text class="caption" text-anchor="middle" pointer-events="none" x="0" y="5" font-size="10px" fill="#2A2C34" font-family="Helvetica Neue, Helvetica, Arial, sans-serif"> tests with</text><text class="caption" text-anchor="middle" pointer-events="none" x="0" y="15" font-size="10px" fill="#2A2C34" font-family="Helvetica Neue, Helvetica, Arial, sans-serif"> Sig</text></g><g class="node" aria-label="graph-node74" transform="translate(-138.34483891112197,300.2015142365573)"><circle class="b-outline" cx="0" cy="0" r="25" fill="#D9C8AE" stroke="#c0a378" stroke-width="2px"/><text class="caption" text-anchor="middle" pointer-events="none" x="0" y="5" font-size="10px" fill="#2A2C34" font-family="Helvetica Neue, Helvetica, Arial, sans-serif"> pressure…</text></g><g class="node" aria-label="graph-node95" transform="translate(-155.68440375544273,202.56575986854074)"><circle class="b-outline" cx="0" cy="0" r="25" fill="#D9C8AE" stroke="#c0a378" stroke-width="2px"/><text class="caption" text-anchor="middle" pointer-events="none" x="0" y="5" font-size="10px" fill="#2A2C34" font-family="Helvetica Neue, Helvetica, Arial, sans-serif"> pressure…</text></g><g class="node" aria-label="graph-node102" transform="translate(-63.70939980132421,236.06116921184977)"><circle class="b-outline" cx="0" cy="0" r="25" fill="#D9C8AE" stroke="#c0a378" stroke-width="2px"/><text class="caption" text-anchor="middle" pointer-events="none" x="0" y="5" font-size="10px" fill="#2A2C34" font-family="Helvetica Neue, Helvetica, Arial, sans-serif"> pressure…</text></g></g></svg>